# xmcd
#
# Track frame offsets: 
#        150
#        13236
#        26367
#        38873
#        51869
#        64471
#        75941
#        87743
#        98511
#        110317
#        121824
#        135274
#        147629
#        158962
#        169704
#        182009
#        193909
#        204675
#        216888
#        227806
#
# Disc length: 3210 seconds
#
# Revision: 0
# Processed by: cddbd v1.5.2PL0 Copyright (c) Steve Scherf et al.
# Submitted via: ExactAudioCopy v1.0b4
#
DISCID=180c8814
DTITLE=Hank Williams - The Absolutely Essentioal Collection - CD2
DYEAR=1900
DGENRE=
TTITLE0=Wedding Bells
TTITLE1=I've Just Told Mama Goodbye 
TTITLE2=I'm So Lonesome I Could Cry
TTITLE3=A House Without Love
TTITLE4=I Just Don't Like This Kind Of Livin'
TTITLE5=My Bucket's Got A Hole In It
TTITLE6=Long Gone Lonesome blues
TTITLE7=Why Don't You Love Me
TTITLE8=Why Should We Try Anymore
TTITLE9=My Son Calls Another Man Daddy
TTITLE10=Too Mant Parties And Too Many Pals
TTITLE11=They'll Never Take Her Love From Me
TTITLE12=Nobody's Lonesome For Me
TTITLE13=Moanin' The Blues
TTITLE14=Cold Cold Heart
TTITLE15=Dear John
TTITLE16=I Can't Help It (If I'm Still In Love With You)
TTITLE17=Howlin' At The Moon
TTITLE18=My Heart Would Know
TTITLE19=Hey, Good Lookin'
EXTD=
EXTT0=
EXTT1=
EXTT2=
EXTT3=
EXTT4=
EXTT5=
EXTT6=
EXTT7=
EXTT8=
EXTT9=
EXTT10=
EXTT11=
EXTT12=
EXTT13=
EXTT14=
EXTT15=
EXTT16=
EXTT17=
EXTT18=
EXTT19=
PLAYORDER=
